# xmcd
#
# Track frame offsets:
#	150
#	39425
#	102482
#	127163
#	190192
#
# Disc length: 3767 seconds
#
# Revision: 0
# Processed by: cddbd v1.4PL0 Copyright (c) Steve Scherf et al.
# Submitted via: EasyCDDAExtractor 4.6.9.1
#
DISCID=420eb505
DTITLE=Colloseum - E-Werk Köln - 1994 CD 1
DYEAR=1900
DGENRE=
TTITLE0=Those About ToDie
TTITLE1=Skellington
TTITLE2=Elegy
TTITLE3=Tanglewood
TTITLE4=Valetine Suite
EXTD=
EXTT0=
EXTT1=
EXTT2=
EXTT3=
EXTT4=
PLAYORDER=
